<svg width="11" height="14" viewBox="0 0 11 14" fill="none" xmlns="http://www.w3.org/2000/svg">
<path id="Vector" d="M0.47983 11.019L1.94421 12.7478C2.12296 12.959 2.36221 13.0776 2.61521 13.0776C2.86821 13.0776 3.10747 12.9607 3.28622 12.7478L4.86335 10.8874C5.0421 10.6762 5.14247 10.3918 5.14247 10.0929C5.14247 9.7923 5.04347 9.51121 4.86335 9.29836L3.63134 7.84092C3.912 7.06819 4.31526 6.36609 4.81935 5.77255C5.32398 5.173 5.91385 4.70018 6.56836 4.36548L7.80036 5.82292C7.97911 6.03414 8.21836 6.15275 8.47136 6.15275C8.59616 6.1533 8.71978 6.12441 8.835 6.06777C8.95022 6.01113 9.05472 5.92789 9.14237 5.82292L10.7209 3.96253C10.8996 3.7513 11 3.46696 11 3.168C11 2.86741 10.901 2.58632 10.7209 2.37347L9.25787 0.644691C8.95262 0.283986 8.53186 0.077637 8.10011 0.077637C8.01074 0.077637 7.92411 0.0857606 7.83611 0.103633C6.0156 0.457839 4.20885 1.60332 2.74996 3.32561C1.29246 5.05114 0.324453 7.18612 0.0219521 9.33898C-0.0646732 9.9499 0.108578 10.5787 0.47983 11.019V11.019ZM0.996832 9.53233C1.26496 7.61669 2.13671 5.70593 3.44984 4.15425C4.76297 2.60257 6.3786 1.57245 7.99974 1.25561C8.20324 1.21499 8.41224 1.29623 8.56074 1.47009L9.99762 3.168L8.47411 4.9699L6.82686 3.02014L6.81448 3.00552L6.51748 3.1355C5.61695 3.52675 4.79918 4.1447 4.12086 4.94653C3.44253 5.74837 2.91987 6.71491 2.58909 7.77917L2.47909 8.13013L4.14009 10.0913L2.61659 11.8932L1.17971 10.1952C1.03121 10.0198 0.962457 9.7728 0.996832 9.53233Z" fill="white"/>
</svg>
